{
    "asset": {
        "version": "2.0",
        "generator": "THREE.GLTFExporter r185"
    },
    "scenes": [
        {
            "name": "AuxScene",
            "nodes": [0]
        }
    ],
    "scene": 0,
    "nodes": [
        {
            "children": [1]
        },
        {
            "name": "Column",
            "mesh": 0
        }
    ],
    "bufferViews": [
        {
            "buffer": 0,
            "byteOffset": 0,
            "byteLength": 1200,
            "target": 34962,
            "byteStride": 12
        },
        {
            "buffer": 0,
            "byteOffset": 1200,
            "byteLength": 1200,
            "target": 34962,
            "byteStride": 12
        },
        {
            "buffer": 0,
            "byteOffset": 2400,
            "byteLength": 800,
            "target": 34962,
            "byteStride": 8
        },
        {
            "buffer": 0,
            "byteOffset": 3200,
            "byteLength": 384,
            "target": 34963
        }
    ],
    "buffers": [
        {
            "byteLength": 3584,
            "uri": "data:application/octet-stream;base64,"
        }
    ],
    "accessors": [
        {
            "bufferView": 0,
            "componentType": 5126,
            "count": 100,
            "max": [0.3499999940395355, 1, 0.3499999940395355],
            "min": [-0.3499999940395355, -1, -0.3499999940395355],
            "type": "VEC3"
        },
        {
            "bufferView": 1,
            "componentType": 5126,
            "count": 100,
            "max": [1, 1, 1],
            "min": [-1, -1, -1],
            "type": "VEC3"
        },
        {
            "bufferView": 2,
            "componentType": 5126,
            "count": 100,
            "max": [1, 1],
            "min": [0, 0],
            "type": "VEC2"
        },
        {
            "bufferView": 3,
            "componentType": 5123,
            "count": 192,
            "max": [99],
            "min": [0],
            "type": "SCALAR"
        }
    ],
    "materials": [
        {
            "pbrMetallicRoughness": {
                "baseColorFactor": [0.33245153633549385, 0.36625259558833256, 0.4286904966038916, 1],
                "metallicFactor": 0,
                "roughnessFactor": 0.8
            }
        }
    ],
    "meshes": [
        {
            "primitives": [
                {
                    "mode": 4,
                    "attributes": {
                        "POSITION": 0,
                        "NORMAL": 1,
                        "TEXCOORD_0": 2
                    },
                    "indices": 3,
                    "material": 0
                }
            ]
        }
    ]
}
